<?xml version="1.0" encoding="UTF-8" standalone="no"?>
<!-- Generator: Adobe Illustrator 16.0.0, SVG Export Plug-In . SVG Version: 6.00 Build 0)  -->

<svg
   xmlns:dc="http://purl.org/dc/elements/1.1/"
   xmlns:cc="http://creativecommons.org/ns#"
   xmlns:rdf="http://www.w3.org/1999/02/22-rdf-syntax-ns#"
   xmlns:svg="http://www.w3.org/2000/svg"
   xmlns="http://www.w3.org/2000/svg"
   xmlns:sodipodi="http://sodipodi.sourceforge.net/DTD/sodipodi-0.dtd"
   xmlns:inkscape="http://www.inkscape.org/namespaces/inkscape"
   version="1.1"
   id="Capa_1"
   x="0px"
   y="0px"
   width="475.085px"
   height="475.085px"
   viewBox="0 0 475.085 475.085"
   style="enable-background:new 0 0 475.085 475.085;"
   xml:space="preserve"
   sodipodi:docname="greenPower.svg"
   inkscape:version="0.92.4 5da689c313, 2019-01-14"><metadata
   id="metadata4826"><rdf:RDF><cc:Work
       rdf:about=""><dc:format>image/svg+xml</dc:format><dc:type
         rdf:resource="http://purl.org/dc/dcmitype/StillImage" /><dc:title></dc:title></cc:Work></rdf:RDF></metadata><defs
   id="defs4824" /><sodipodi:namedview
   pagecolor="#ffffff"
   bordercolor="#666666"
   borderopacity="1"
   objecttolerance="10"
   gridtolerance="10"
   guidetolerance="10"
   inkscape:pageopacity="0"
   inkscape:pageshadow="2"
   inkscape:window-width="1680"
   inkscape:window-height="1022"
   id="namedview4822"
   showgrid="false"
   inkscape:zoom="0.49675322"
   inkscape:cx="-83.542488"
   inkscape:cy="237.5425"
   inkscape:window-x="1366"
   inkscape:window-y="0"
   inkscape:window-maximized="1"
   inkscape:current-layer="Capa_1" />
<g
   id="g4789"
   style="fill:#049b1d;fill-opacity:1">
	<g
   id="g4787"
   style="fill:#049b1d;fill-opacity:1">
		<path
   d="M237.545,255.816c9.899,0,18.468-3.609,25.696-10.848c7.23-7.229,10.854-15.799,10.854-25.694V36.547    c0-9.9-3.62-18.464-10.854-25.693C256.014,3.617,247.444,0,237.545,0c-9.9,0-18.464,3.621-25.697,10.854    c-7.233,7.229-10.85,15.797-10.85,25.693v182.728c0,9.895,3.617,18.464,10.85,25.694    C219.081,252.207,227.648,255.816,237.545,255.816z"
   id="path4783"
   style="fill:#049b1d;fill-opacity:1" />
		<path
   d="M433.836,157.887c-15.325-30.642-36.878-56.339-64.666-77.084c-7.994-6.09-17.035-8.47-27.123-7.139    c-10.089,1.333-18.083,6.091-23.983,14.273c-6.091,7.993-8.418,16.986-6.994,26.979c1.423,9.998,6.139,18.037,14.133,24.128    c18.645,14.084,33.072,31.312,43.25,51.678c10.184,20.364,15.27,42.065,15.27,65.091c0,19.801-3.854,38.688-11.561,56.678    c-7.706,17.987-18.13,33.544-31.265,46.679c-13.135,13.131-28.688,23.551-46.678,31.261c-17.987,7.71-36.878,11.57-56.673,11.57    c-19.792,0-38.684-3.86-56.671-11.57c-17.989-7.71-33.547-18.13-46.682-31.261c-13.129-13.135-23.551-28.691-31.261-46.679    c-7.708-17.99-11.563-36.877-11.563-56.678c0-23.026,5.092-44.724,15.274-65.091c10.183-20.364,24.601-37.591,43.253-51.678    c7.994-6.095,12.703-14.133,14.133-24.128c1.427-9.989-0.903-18.986-6.995-26.979c-5.901-8.182-13.844-12.941-23.839-14.273    c-9.994-1.332-19.085,1.049-27.268,7.139c-27.792,20.745-49.344,46.442-64.669,77.084c-15.324,30.646-22.983,63.288-22.983,97.927    c0,29.697,5.806,58.054,17.415,85.082c11.613,27.028,27.218,50.34,46.826,69.948c19.602,19.603,42.919,35.215,69.949,46.815    c27.028,11.615,55.388,17.426,85.08,17.426c29.693,0,58.052-5.811,85.081-17.426c27.031-11.604,50.347-27.213,69.952-46.815    c19.602-19.602,35.207-42.92,46.818-69.948s17.412-55.392,17.412-85.082C456.809,221.174,449.16,188.532,433.836,157.887z"
   id="path4785"
   style="fill:#049b1d;fill-opacity:1" />
	</g>
</g>
<g
   id="g4791">
</g>
<g
   id="g4793">
</g>
<g
   id="g4795">
</g>
<g
   id="g4797">
</g>
<g
   id="g4799">
</g>
<g
   id="g4801">
</g>
<g
   id="g4803">
</g>
<g
   id="g4805">
</g>
<g
   id="g4807">
</g>
<g
   id="g4809">
</g>
<g
   id="g4811">
</g>
<g
   id="g4813">
</g>
<g
   id="g4815">
</g>
<g
   id="g4817">
</g>
<g
   id="g4819">
</g>
</svg>